<svg xmlns="http://www.w3.org/2000/svg" xmlns:xlink="http://www.w3.org/1999/xlink" width="300" zoomAndPan="magnify" viewBox="0 0 224.87999 225" height="300" preserveAspectRatio="xMidYMid meet" version="1.0"><defs><clipPath id="7cb6047605"><path d="M 6.90625 6.964844 L 217.976562 6.964844 L 217.976562 218.035156 L 6.90625 218.035156 Z M 6.90625 6.964844 " clip-rule="nonzero"/></clipPath><clipPath id="570437a03d"><path d="M 112.441406 6.964844 C 54.15625 6.964844 6.90625 54.214844 6.90625 112.5 C 6.90625 170.785156 54.15625 218.035156 112.441406 218.035156 C 170.726562 218.035156 217.976562 170.785156 217.976562 112.5 C 217.976562 54.214844 170.726562 6.964844 112.441406 6.964844 Z M 112.441406 6.964844 " clip-rule="nonzero"/></clipPath><clipPath id="8293080c9d"><path d="M 35.765625 35 L 189 35 L 189 190 L 35.765625 190 Z M 35.765625 35 " clip-rule="nonzero"/></clipPath></defs><g clip-path="url(#7cb6047605)"><g clip-path="url(#570437a03d)"><path fill="#0e6163" d="M 6.90625 6.964844 L 217.976562 6.964844 L 217.976562 218.035156 L 6.90625 218.035156 Z M 6.90625 6.964844 " fill-opacity="1" fill-rule="nonzero"/></g></g><g clip-path="url(#8293080c9d)"><path fill="#ffffff" d="M 35.707031 126.875 C 35.707031 140.289062 35.707031 150.871094 36.804688 159.1875 C 37.90625 167.609375 40.269531 174.425781 45.597656 179.800781 C 50.984375 185.179688 57.742188 187.5625 66.09375 188.722656 C 74.28125 189.832031 84.777344 189.777344 98.078125 189.777344 L 126.597656 189.777344 C 139.894531 189.777344 150.390625 189.832031 158.578125 188.722656 C 166.984375 187.5625 173.746094 185.179688 179.074219 179.800781 C 185.007812 173.816406 187.261719 166.003906 188.25 156.191406 C 188.285156 155.839844 188.285156 155.488281 188.25 155.132812 C 188.214844 154.78125 188.144531 154.433594 188.042969 154.09375 C 187.941406 153.753906 187.804688 153.429688 187.640625 153.117188 C 187.472656 152.804688 187.277344 152.507812 187.050781 152.234375 C 186.828125 151.960938 186.578125 151.707031 186.304688 151.484375 C 186.035156 151.257812 185.742188 151.058594 185.429688 150.890625 C 185.117188 150.71875 184.792969 150.582031 184.453125 150.476562 C 184.113281 150.371094 183.769531 150.300781 183.414062 150.261719 C 183.066406 150.230469 182.714844 150.234375 182.363281 150.273438 C 182.011719 150.308594 181.667969 150.382812 181.332031 150.488281 C 180.996094 150.59375 180.671875 150.730469 180.363281 150.898438 C 180.054688 151.070312 179.761719 151.265625 179.492188 151.492188 C 179.222656 151.71875 178.976562 151.972656 178.753906 152.246094 C 178.535156 152.519531 178.34375 152.816406 178.179688 153.128906 C 178.015625 153.441406 177.882812 153.765625 177.785156 154.105469 C 177.6875 154.445312 177.621094 154.789062 177.589844 155.140625 C 176.710938 164.007812 174.84375 168.773438 171.492188 172.152344 C 168.46875 175.203125 164.347656 177.03125 157.148438 178.027344 C 149.839844 179.027344 140.167969 179.027344 126.597656 179.027344 L 98.078125 179.027344 C 84.503906 179.027344 74.832031 179.027344 67.523438 178.027344 C 60.324219 177.03125 56.203125 175.203125 53.183594 172.152344 C 50.160156 169.105469 48.347656 164.949219 47.410156 157.746094 C 46.421875 150.316406 46.421875 140.621094 46.421875 126.875 L 46.421875 98.113281 C 46.425781 97.761719 46.390625 97.410156 46.324219 97.066406 C 46.253906 96.71875 46.15625 96.382812 46.019531 96.054688 C 45.886719 95.730469 45.722656 95.421875 45.527344 95.125 C 45.332031 94.832031 45.109375 94.5625 44.859375 94.3125 C 44.613281 94.0625 44.339844 93.839844 44.046875 93.640625 C 43.753906 93.445312 43.445312 93.28125 43.121094 93.144531 C 42.792969 93.007812 42.457031 92.90625 42.113281 92.839844 C 41.765625 92.769531 41.417969 92.734375 41.066406 92.734375 C 40.710938 92.734375 40.363281 92.769531 40.015625 92.839844 C 39.671875 92.90625 39.335938 93.007812 39.011719 93.144531 C 38.683594 93.28125 38.375 93.445312 38.082031 93.640625 C 37.789062 93.839844 37.519531 94.0625 37.269531 94.3125 C 37.019531 94.5625 36.796875 94.832031 36.601562 95.125 C 36.40625 95.421875 36.242188 95.730469 36.109375 96.054688 C 35.976562 96.382812 35.875 96.71875 35.808594 97.066406 C 35.738281 97.410156 35.707031 97.761719 35.707031 98.113281 Z M 147.972656 119.671875 C 144.070312 119.671875 140.882812 124.546875 140.882812 130.476562 C 140.882812 136.464844 144.070312 141.285156 147.972656 141.285156 C 151.929688 141.285156 155.117188 136.464844 155.117188 130.476562 C 155.117188 124.546875 151.929688 119.671875 147.972656 119.671875 Z M 130.773438 147.546875 C 129.417969 148.464844 128.007812 149.273438 126.53125 149.980469 C 125.058594 150.683594 123.539062 151.277344 121.976562 151.753906 C 120.417969 152.234375 118.828125 152.59375 117.210938 152.835938 C 115.59375 153.078125 113.96875 153.199219 112.335938 153.199219 C 110.703125 153.199219 109.078125 153.078125 107.460938 152.835938 C 105.847656 152.59375 104.257812 152.234375 102.695312 151.753906 C 101.132812 151.277344 99.613281 150.683594 98.140625 149.980469 C 96.667969 149.273438 95.253906 148.464844 93.902344 147.546875 C 93.605469 147.355469 93.296875 147.195312 92.972656 147.066406 C 92.648438 146.933594 92.3125 146.835938 91.96875 146.769531 C 91.625 146.707031 91.277344 146.671875 90.925781 146.675781 C 90.578125 146.675781 90.230469 146.710938 89.886719 146.78125 C 89.542969 146.851562 89.210938 146.953125 88.886719 147.085938 C 88.5625 147.222656 88.253906 147.386719 87.960938 147.578125 C 87.671875 147.773438 87.398438 147.992188 87.152344 148.238281 C 86.902344 148.484375 86.679688 148.753906 86.480469 149.042969 C 86.292969 149.339844 86.132812 149.652344 86 149.980469 C 85.871094 150.308594 85.773438 150.644531 85.707031 150.988281 C 85.644531 151.335938 85.609375 151.683594 85.613281 152.035156 C 85.613281 152.390625 85.648438 152.738281 85.71875 153.082031 C 85.785156 153.429688 85.886719 153.765625 86.019531 154.089844 C 86.152344 154.417969 86.316406 154.726562 86.507812 155.023438 C 86.699219 155.316406 86.917969 155.589844 87.164062 155.84375 C 87.410156 156.097656 87.675781 156.324219 87.964844 156.527344 C 89.757812 157.730469 91.628906 158.792969 93.578125 159.71875 C 95.527344 160.648438 97.535156 161.425781 99.597656 162.054688 C 101.664062 162.683594 103.761719 163.15625 105.898438 163.472656 C 108.03125 163.792969 110.179688 163.953125 112.335938 163.953125 C 114.496094 163.953125 116.640625 163.792969 118.777344 163.472656 C 120.910156 163.15625 123.011719 162.683594 125.074219 162.054688 C 127.140625 161.425781 129.148438 160.648438 131.097656 159.71875 C 133.046875 158.792969 134.914062 157.730469 136.707031 156.527344 C 137 156.332031 137.273438 156.109375 137.523438 155.859375 C 137.773438 155.609375 137.996094 155.339844 138.195312 155.046875 C 138.390625 154.753906 138.558594 154.445312 138.691406 154.121094 C 138.828125 153.792969 138.933594 153.457031 139 153.113281 C 139.070312 152.769531 139.109375 152.417969 139.109375 152.066406 C 139.109375 151.714844 139.078125 151.363281 139.011719 151.015625 C 138.941406 150.671875 138.84375 150.335938 138.707031 150.007812 C 138.574219 149.683594 138.410156 149.371094 138.21875 149.078125 C 138.023438 148.78125 137.800781 148.511719 137.554688 148.257812 C 137.304688 148.007812 137.035156 147.785156 136.742188 147.585938 C 136.449219 147.390625 136.140625 147.222656 135.816406 147.085938 C 135.492188 146.949219 135.15625 146.84375 134.8125 146.773438 C 134.464844 146.703125 134.117188 146.664062 133.765625 146.664062 C 133.410156 146.660156 133.0625 146.691406 132.714844 146.757812 C 132.367188 146.824219 132.03125 146.925781 131.707031 147.058594 C 131.378906 147.191406 131.066406 147.355469 130.773438 147.546875 Z M 76.699219 141.285156 C 80.65625 141.285156 83.84375 136.464844 83.84375 130.476562 C 83.84375 124.546875 80.65625 119.671875 76.699219 119.671875 C 72.746094 119.671875 69.558594 124.546875 69.558594 130.476562 C 69.558594 136.464844 72.746094 141.285156 76.699219 141.285156 Z M 67.578125 47.015625 C 74.941406 46.019531 84.613281 46.019531 98.296875 46.019531 C 103.589844 45.804688 108.863281 46.007812 114.121094 46.628906 L 114.121094 62.199219 C 114.121094 80.601562 114.121094 89.855469 120.882812 96.671875 C 122.785156 98.464844 124.9375 99.890625 127.332031 100.945312 C 129.726562 102.003906 132.230469 102.628906 134.839844 102.824219 C 141.582031 103.484375 148.34375 103.726562 155.117188 103.542969 L 177.042969 103.542969 C 178.195312 107.480469 178.304688 112.6875 178.304688 123.773438 L 178.304688 126.875 C 178.300781 127.230469 178.328125 127.582031 178.390625 127.929688 C 178.453125 128.277344 178.550781 128.617188 178.683594 128.945312 C 178.8125 129.277344 178.976562 129.589844 179.167969 129.886719 C 179.363281 130.183594 179.582031 130.457031 179.832031 130.710938 C 180.078125 130.964844 180.347656 131.1875 180.644531 131.386719 C 180.9375 131.585938 181.246094 131.753906 181.574219 131.890625 C 181.898438 132.03125 182.234375 132.132812 182.582031 132.203125 C 182.929688 132.273438 183.28125 132.308594 183.636719 132.308594 C 183.988281 132.308594 184.339844 132.273438 184.6875 132.203125 C 185.035156 132.132812 185.371094 132.03125 185.699219 131.890625 C 186.027344 131.753906 186.335938 131.585938 186.628906 131.386719 C 186.921875 131.1875 187.191406 130.964844 187.441406 130.710938 C 187.6875 130.457031 187.910156 130.183594 188.101562 129.886719 C 188.296875 129.589844 188.457031 129.277344 188.589844 128.945312 C 188.71875 128.617188 188.816406 128.277344 188.882812 127.929688 C 188.945312 127.582031 188.972656 127.230469 188.964844 126.875 L 188.964844 123.773438 C 188.964844 111.578125 189.074219 103.933594 186.054688 97.058594 C 183.03125 90.1875 177.261719 85.089844 168.304688 77 L 140.113281 51.394531 C 132.367188 44.355469 127.53125 39.8125 121.429688 37.484375 C 115.386719 35.15625 108.738281 35.210938 98.296875 35.210938 C 84.945312 35.210938 74.394531 35.210938 66.148438 36.320312 C 57.742188 37.429688 50.984375 39.8125 45.597656 45.242188 C 39.664062 51.226562 37.410156 59.042969 36.476562 68.851562 C 36.4375 69.203125 36.433594 69.550781 36.464844 69.902344 C 36.496094 70.253906 36.558594 70.601562 36.660156 70.9375 C 36.757812 71.277344 36.890625 71.601562 37.054688 71.914062 C 37.21875 72.226562 37.414062 72.519531 37.636719 72.792969 C 37.855469 73.066406 38.105469 73.3125 38.375 73.539062 C 38.648438 73.761719 38.941406 73.957031 39.25 74.125 C 39.5625 74.289062 39.886719 74.421875 40.222656 74.523438 C 40.5625 74.625 40.90625 74.691406 41.257812 74.726562 C 41.605469 74.757812 41.957031 74.753906 42.304688 74.71875 C 42.652344 74.683594 42.996094 74.613281 43.332031 74.507812 C 43.664062 74.402344 43.988281 74.269531 44.296875 74.101562 C 44.605469 73.933594 44.894531 73.738281 45.164062 73.515625 C 45.433594 73.292969 45.679688 73.042969 45.902344 72.773438 C 46.125 72.5 46.316406 72.210938 46.480469 71.898438 C 46.644531 71.589844 46.777344 71.269531 46.878906 70.933594 C 46.980469 70.597656 47.046875 70.253906 47.082031 69.90625 C 47.960938 61.039062 49.828125 56.214844 53.183594 52.835938 C 56.203125 49.789062 60.324219 47.957031 67.578125 47.015625 Z M 124.839844 62.199219 L 124.839844 52.171875 C 126.925781 53.945312 129.507812 56.214844 132.972656 59.375 L 161.160156 84.980469 C 164.675781 88.191406 167.425781 90.6875 169.511719 92.738281 L 155.117188 92.738281 C 148.820312 92.910156 142.539062 92.707031 136.269531 92.128906 C 134.835938 92.054688 133.453125 91.757812 132.121094 91.234375 C 130.785156 90.714844 129.566406 89.996094 128.464844 89.078125 C 124.839844 85.367188 124.839844 77.664062 124.839844 62.199219 Z M 124.839844 62.199219 " fill-opacity="1" fill-rule="evenodd"/></g></svg>